<svg xmlns="http://www.w3.org/2000/svg" xmlns:xlink="http://www.w3.org/1999/xlink" width="360.415" height="468.411" viewBox="0 0 360.415 468.411">
  <defs>
    <linearGradient id="linear-gradient" x1="1.04" y1="0.082" x2="-0.021" y2="1.034" gradientUnits="objectBoundingBox">
      <stop offset="0" stop-color="#00cb37"/>
      <stop offset="0.962" stop-color="#01c7d7"/>
      <stop offset="1" stop-color="#00661c"/>
    </linearGradient>
  </defs>
  <path id="Path_1" data-name="Path 1" d="M-157.355,194.284c-.254-1.389-2.423-3.494-3.666-3.472-13.137.239-26.445-.352-39.368,1.565-43.831,6.5-79.57,28.156-109.009,60.765-1.036,1.148-1.345,2.95-1.994,4.447l-2.51-1.794V211.64a51.5,51.5,0,0,0,31.4-47.365,51.48,51.48,0,0,0-51.422-51.422,51.481,51.481,0,0,0-51.423,51.422,51.5,51.5,0,0,0,31.166,47.258c.174,26.592.086,53.186.086,79.779v6.867c-2.621-2.776-4.163-4.4-5.7-6.039-37.183-39.516-82.006-61.84-137.142-61.1-12.6.168-12.629.02-14.685,12.441a177.947,177.947,0,0,0,1.733,68.472c16,71.605,78.079,128.473,150.857,138.088,3.706.49,5.1,1.83,5.014,5.668-.2,8.945-.007,17.9-.108,26.849a51.5,51.5,0,0,0-31.221,47.282,51.481,51.481,0,0,0,51.423,51.422A51.48,51.48,0,0,0-282.5,529.842a51.5,51.5,0,0,0-31.282-47.31c.016-22.21.11-44.42-.1-66.628-.042-4.463,1.5-6.107,5.762-6.716,41.422-5.917,76.662-24.065,105.173-54.637C-160.465,309-146.205,255.171-157.355,194.284Zm-176.567-48.431A18.443,18.443,0,0,1-315.5,164.275,18.443,18.443,0,0,1-333.922,182.7a18.443,18.443,0,0,1-18.423-18.423A18.443,18.443,0,0,1-333.922,145.853Zm-20.922,263.6c-31.19-4.748-57.52-18.629-79.393-41.144-26.549-27.327-40.725-64.671-39-92.447C-416.152,275.3-345.08,355.135-354.844,409.457Zm20.922,138.807a18.443,18.443,0,0,1-18.423-18.422,18.443,18.443,0,0,1,18.423-18.422A18.443,18.443,0,0,1-315.5,529.842,18.443,18.443,0,0,1-333.922,548.264ZM-196.5,259.035c-11.127,54.142-56.492,98.619-110.778,108.936-5.829,1.107-6.261.779-6.038-5.278.948-25.758,9.541-48.79,24.557-69.632,21.9-30.394,50.787-50,87.679-57.438,2.053-.413,4.168-.514,7.665-.928C-194.485,243.373-194.917,251.322-196.5,259.035Z" transform="translate(514.13 -112.853)" fill="url(#linear-gradient)"/>
</svg>
